<svg xmlns="http://www.w3.org/2000/svg" viewBox="0 0 256 256">
  <defs>
    <linearGradient id="g" x1="0" y1="0" x2="1" y2="1">
      <stop offset="0" stop-color="#6FAE45"/>
      <stop offset="1" stop-color="#2C7A7B"/>
    </linearGradient>
  </defs>
  <rect width="256" height="256" rx="48" fill="#F7FAF4"/>
  <circle cx="124" cy="118" r="82" fill="none" stroke="url(#g)" stroke-width="22"/>
  <path d="M183 171 L218 211" stroke="#589632" stroke-width="22" stroke-linecap="round"/>
  <path d="M46 178 L91 117 L120 148 L151 91 L207 178 Z" fill="#73A942" opacity="0.92"/>
  <path d="M91 117 L120 148 L151 91 L207 178 L46 178 Z" fill="none" stroke="#2E6E73" stroke-width="6" stroke-linejoin="round"/>
  <path d="M60 192 C93 181 128 184 159 191 C184 197 203 196 221 187" fill="none" stroke="#2E8B8B" stroke-width="7" stroke-linecap="round"/>
  <path d="M68 207 C103 198 133 200 165 207 C187 212 205 210 219 204" fill="none" stroke="#63AFC0" stroke-width="5" stroke-linecap="round"/>
</svg>
